<svg width="1280" height="720" xmlns="http://www.w3.org/2000/svg" xmlns:xlink="http://www.w3.org/1999/xlink" overflow="hidden"><defs><filter id="fx0" x="-10%" y="-10%" width="120%" height="120%" filterUnits="userSpaceOnUse" primitiveUnits="userSpaceOnUse"><feComponentTransfer color-interpolation-filters="sRGB"><feFuncR type="discrete" tableValues="0 0"/><feFuncG type="discrete" tableValues="0 0"/><feFuncB type="discrete" tableValues="0 0"/><feFuncA type="linear" slope="0.4" intercept="0"/></feComponentTransfer><feGaussianBlur stdDeviation="2.22222 2.22222"/></filter><filter id="fx1" x="-10%" y="-10%" width="120%" height="120%" filterUnits="userSpaceOnUse" primitiveUnits="userSpaceOnUse"><feComponentTransfer color-interpolation-filters="sRGB"><feFuncR type="discrete" tableValues="0 0"/><feFuncG type="discrete" tableValues="0 0"/><feFuncB type="discrete" tableValues="0 0"/><feFuncA type="linear" slope="0.4" intercept="0"/></feComponentTransfer><feGaussianBlur stdDeviation="2.22222 2.22222"/></filter><filter id="fx2" x="-10%" y="-10%" width="120%" height="120%" filterUnits="userSpaceOnUse" primitiveUnits="userSpaceOnUse"><feComponentTransfer color-interpolation-filters="sRGB"><feFuncR type="discrete" tableValues="0 0"/><feFuncG type="discrete" tableValues="0 0"/><feFuncB type="discrete" tableValues="0 0"/><feFuncA type="linear" slope="0.4" intercept="0"/></feComponentTransfer><feGaussianBlur stdDeviation="2.22222 2.22222"/></filter><filter id="fx3" x="-10%" y="-10%" width="120%" height="120%" filterUnits="userSpaceOnUse" primitiveUnits="userSpaceOnUse"><feComponentTransfer color-interpolation-filters="sRGB"><feFuncR type="discrete" tableValues="0 0"/><feFuncG type="discrete" tableValues="0 0"/><feFuncB type="discrete" tableValues="0 0"/><feFuncA type="linear" slope="0.4" intercept="0"/></feComponentTransfer><feGaussianBlur stdDeviation="2.22222 2.22222"/></filter><clipPath id="clip4"><rect x="0" y="0" width="1280" height="720"/></clipPath><clipPath id="clip5"><path d="M16.5001 59.5001 16.5001 711.5 213.5 711.5 213.5 59.5001ZM1.90735e-05 1.07288e-05 1280 1.07288e-05 1280 720 1.90735e-05 720Z" fill-rule="evenodd" clip-rule="evenodd"/></clipPath><clipPath id="clip6"><path d="M229.5 59.5001 229.5 711.5 864.5 711.5 864.5 59.5001ZM1.90735e-05 1.07288e-05 1280 1.07288e-05 1280 720 1.90735e-05 720Z" fill-rule="evenodd" clip-rule="evenodd"/></clipPath><clipPath id="clip7"><path d="M877.5 59.5001 877.5 711.5 1264.5 711.5 1264.5 59.5001ZM1.90735e-05 1.07288e-05 1280 1.07288e-05 1280 720 1.90735e-05 720Z" fill-rule="evenodd" clip-rule="evenodd"/></clipPath></defs><g clip-path="url(#clip4)"><rect x="0" y="0" width="1280" height="720" fill="#FFFFFF"/><g filter="url(#fx0)" transform="translate(-4 1)"><g><rect x="8.17" y="7.58" width="1206.66" height="42.84" fill="#1C315E"/></g></g><rect x="16" y="9" width="1183" height="42" fill="#1C315E"/><path d="M1281 493 1256.5 493C1242.97 493 1232 461.436 1232 422.5 1232 383.564 1242.97 352 1256.5 352L1281 352Z" fill="#1C315E" fill-rule="evenodd"/><rect x="877" y="0" width="322" height="688" fill="#E6E2C3"/><path d="M1166.63 642.897 1189.34 665.665C1201.89 678.239 1201.86 698.602 1189.29 711.146 1176.71 723.69 1156.35 723.665 1143.81 711.09L1121.1 688.322Z" fill="#1C315E" fill-rule="evenodd"/><rect x="877" y="688" width="286" height="32" fill="#1C315E"/><g clip-path="url(#clip5)"><g filter="url(#fx1)" transform="translate(5 43)"><g><rect x="9.53005" y="9.98005" width="200.94" height="665.04" stroke="#227C70" stroke-width="3" stroke-miterlimit="8" fill="#FFFFFF"/></g></g></g><rect x="16.5001" y="59.5001" width="197" height="652" stroke="#227C70" stroke-width="3" stroke-miterlimit="8" fill="#FFFFFF"/><g clip-path="url(#clip6)"><g filter="url(#fx2)" transform="translate(214 43)"><g><rect x="9.15005" y="9.98005" width="647.7" height="665.04" stroke="#227C70" stroke-width="3" stroke-miterlimit="8" fill="#FFFFFF"/></g></g></g><rect x="229.5" y="59.5001" width="635" height="652" stroke="#227C70" stroke-width="3" stroke-miterlimit="8" fill="#FFFFFF"/><g clip-path="url(#clip7)"><g filter="url(#fx3)" transform="translate(864 43)"><g><rect x="9.63007" y="9.98005" width="394.74" height="665.04" stroke="#227C70" stroke-width="3" stroke-miterlimit="8" fill="#FFFFFF"/></g></g></g><rect x="877.5" y="59.5001" width="387" height="652" stroke="#227C70" stroke-width="3" stroke-miterlimit="8" fill="#FFFFFF"/></g></svg>